<?xml version="1.0" encoding="utf-8"?>
<!-- Generator: Adobe Illustrator 25.3.0, SVG Export Plug-In . SVG Version: 6.00 Build 0)  -->
<svg version="1.1" id="Capa_1" xmlns="http://www.w3.org/2000/svg" xmlns:xlink="http://www.w3.org/1999/xlink" x="0px" y="0px"
	 viewBox="0 0 418 340" style="enable-background:new 0 0 418 340;" xml:space="preserve">
<style type="text/css">
	.st0{fill:#030203;}
	.st1{fill:#00A4FF;}
	.st2{fill:#FF3C00;}
	.st3{fill:#946034;}
	.st4{fill:#956034;}
	.st5{fill:#452A17;}
	.st6{fill:#D37D00;}
	.st7{fill:#FF9D00;}
	.st8{fill:#F7FAF4;}
	.st9{fill:#050303;}
	.st10{fill:#050404;}
</style>
<g>
	<path class="st0" d="M286.14,145.35c26-5.55,52.01-11.09,78.01-16.66c10.82-2.32,20.86,4.25,23.08,15.18
		c2.17,10.63-4.75,21.45-15.25,23.29c-25.26,5.3-51.64,9.4-75.93,16.77c32.43,0.01,64.27-0.02,96.47,0
		c23.44,0.48,27.66,27.96,8.29,38.77c7.91,3.91,12.51,10.08,12.26,19.2c0.03,11.53-10.62,19.85-21.72,19.23
		c-21.81-0.03-43.62-0.02-65.54,0.6c12.19,3.15,24.44,6.07,36.58,9.4c14.89,3.4,13.43,27.62-1.17,30.38
		c-27.46-3.24-54.34-14.08-82.01-17.17c11.54,6.36,5.61,23.73-3.45,29.61c-7.12,4.33-19.92-8.6-28.01-11.57
		c4.11,57.53-92.52,35.03-55.99,0.1c-37.58,12.34-81.68,23.69-109.4-13.73c-1.58-2.09-2.67-2.46-5.15-1.3
		c-14.29,6.71-29.54,7.23-44.95,6.59c-2.89-0.12-3.55-1.55-3.54-4.16c0.08-15.33,0.11-30.65-0.02-45.98
		c-0.03-2.95,1.13-3.99,3.83-4.63c11.19-2.68,21.17-7.76,29.57-15.74c1.45-1.38,2.8-2.7,2.97-4.97
		c4.18-48.43,31.28-92.3,27.93-141.78c-0.55-10.76-2.88-21.11-9.34-30.08c-10.19-14.23-33.06-19.16-44.21-6.61
		c48.4-10.05,38.83,53.85-7.92,41.77C8.13,75.26-2.13,50.11,9.76,28.29c29.92-47.33,105.4-26.45,112.35,35.22
		c5.69,34.75-3.07,67.99-12.3,101.31c6.93-2.26,13.37-3.18,17.43-10.57c10.01-18.22,19.93-36.46,28.69-55.32
		c7.28-15.94,26.81,8.79,18.48,21.56c-2.13,4.81-4.36,9.57-5.82,15.01c23.43-21.02,46.26-42.7,67.83-65.65
		c14.24-15.57,32,13.11,17.97,24.48c-9.49,10.51-19.59,20.42-30.61,31.22c36.61-12.6,71.07-24.25,107.12-37.21
		c7.57-2.75,13.75-1.21,19.17,4c11.59,9.95,5.48,30.35-9.31,33.31c-19.29,5.02-37.65,12.76-56.59,18.83
		c-1.43,1.77-3.87,1.37-5.51,2.55c-0.67,0.27,0.53,0.56,0.02,0.13C280.93,145.36,283.71,146.17,286.14,145.35z"/>
	<path class="st1" d="M56,252.71c-7.51,1.59-15.79,4.05-23.39,3.43c-1.48-3.82-0.41-7.85-0.67-11.79c-0.16-2.47,1.88-2.3,3.39-2.75
		c11.51-3.42,21.91-8.77,30.34-17.52c1.15-1.19,2.33-2.29,2.44-4.17c3.32-45.12,27.42-85.75,28.14-131.34
		c3.73-29.52-15.12-67.88-48.81-57.59c-7.33,2.17-12.6,6.58-14.64,14.26c-1.43,2.24,0.94,8.86,3.36,4.89
		c6.89-10.03,18.32-11.34,27.62-3.19c14.66,15.57-7.58,37.08-26.25,32.59C-11.91,68.74,6.32,8.06,50.34,5.99
		c65.81-6.68,79.51,70.9,65.69,121.18c-5.11,36.02-24.79,68.6-28.74,104.4c-1.31,55.28,71.56,85.67,109.78,46.52
		c2.81-2.75,5.47-3.7,9.24-3.13c20.24,1.27,44.86,17.42,36.98,40.48c-6.8,20.99-36.08,24.24-51.6,11.08
		c-13.72-9.9,2.79-29.65,15.13-19.36c8.16,6.4,21.45-0.55,5.75-5.44c-26.35-9.66-50.2,11.44-76.98,9.36
		c-21.58-0.41-39.07-8.57-51.84-26.12c-1.93-2.65-3.21-3.12-6.33-1.52c-5.92,4.65-42.81,11.46-45.53,5.03
		c-1.24-6.54,0.1-8.67,6.57-9.89c9.12-1.73,18.16-4.16,26-9.11c-3.95,1.94-34.89,11.88-32.61,2.81
		c-0.12-11.94-0.2-11.84,11.36-14.54c6.52-1.46,13.73-4.07,19.38-7.16C60.75,250.67,58.72,252.98,56,252.71z"/>
	<path class="st2" d="M152.46,168.62c81.9,1.3,81.81,122.24,0.1,124.14C71.12,291.23,70.42,170.04,152.46,168.62z"/>
	<path class="st3" d="M103.81,182.33c2.72-5.35,1.86-13.85,8.43-14.97c73.16-25.38,146.33-50.77,219.49-76.15
		c9.49-3.28,17.55,0.99,20.66,10.57c1.22,3.74,0.44,5.71-3.58,6.91c-61.21,18.55-122.55,36.68-183.67,55.51
		c-19.52,2.01-36.21,1.29-52.52,14.73C110.16,180.82,107.52,181.76,103.81,182.33z"/>
	<path class="st3" d="M313.55,241.79c-30.48,0-60.96-0.07-91.44,0.08c-4.19,0.02-5.74-0.81-4.6-5.31
		c1.86-3.69-2.57-12.65,3.75-12.47c56.62,0.1,113.26-0.01,169.89,0.04c9.63,0,15.88,4.37,18.29,12.41c1.14,3.79,0.5,5.36-3.95,5.34
		C374.85,241.73,344.2,241.8,313.55,241.79z"/>
	<path class="st3" d="M190.08,176.85c56.3-22.88,115.8-32.33,174.73-45.33c7.69-1.66,14.72,1.77,18.1,8.9
		c2.89,6.11,1.81,8.18-4.72,9.4c-58.07,10.97-116.2,21.65-174.16,33.2C197.39,184.35,194.58,180.4,190.08,176.85z"/>
	<path class="st4" d="M310.5,203.93c-31.63-0.01-63.25,0.02-94.88-0.01c-1.61-0.05-3.8,0.43-4.03-1.8
		c-0.22-2.11,2.15-1.76,3.35-2.02c20.1-4.43,40.23-8.75,60.36-13.03c39.04-0.95,78.24-0.06,117.32-0.33
		c8.26,0.01,14.05,4,16.48,11.17c1.86,5.49,1.5,6.02-4.23,6.02C373.42,203.93,341.96,203.93,310.5,203.93z"/>
	<path class="st5" d="M212.68,257.93c2.4-11.73,3.78-13.09,15.93-12.77c59.69,0.74,121.03-1.41,179.95,0.75
		c-0.06,8.3-11.15,12.4-18.43,12.04C330.96,257.91,271.86,257.93,212.68,257.93z"/>
	<path class="st5" d="M311.53,206.93c32.14,0.71,65.59-1.35,97.09,0.72c-0.05,7.94-9.96,12.45-17.22,12.15
		c-56.28,0.06-112.58-0.24-168.86,0.08c-4.31,0.07-6.01-1.15-6.82-5.49c-1.39-7.52-1.74-7.45,5.88-7.45
		C251.58,206.93,281.55,206.93,311.53,206.93z"/>
	<path class="st5" d="M201.17,186.54c61.16-11.61,121.6-23.08,182.54-34.64c-2.21,6.8-6.5,10.68-12.82,11.81
		c-52.77,10.37-105.22,22.32-157.79,33.7C206.45,198.93,205.46,190.67,201.17,186.54z"/>
	<path class="st6" d="M234.82,261.14c43.7-1.02,85.26,9.87,126.13,23.64c2.39,1.65,8.53,1.49,7.91,5.16c-0.55,4.16-3.76,6.9-8,7.98
		c-29.84-4.58-59.39-14.38-89.47-19.23C258.88,273.94,248.34,266.73,234.82,261.14z"/>
	<path class="st5" d="M352.5,110.81c-2.76,5.91-5.92,9.79-11.07,11.04c-19.74,4.8-38.48,12.6-57.64,19.1
		c-31.31,10.61-62.5,21.59-93.72,32.47c-6.52,2.34-13.82-5.3-22.57-6.71C229.61,147.94,290.45,129.56,352.5,110.81z"/>
	<path class="st7" d="M161.94,146.68c24.54-25.54,53.09-48.35,76.94-75.23c2.65-2.79,5.2-4.54,9.11-2.72
		c18.86,5.74-44.02,58.24-51.38,65.31C185.65,139.53,173.75,142.05,161.94,146.68z"/>
	<path class="st6" d="M204.14,271.62c3.93-7.98,3.93-7.99,11.31-5.25c21.58,8.04,42.99,17.41,60.8,32.37
		c2.81,2.24,5.5,4.23,1.98,8.35c-3.8,4.45-5.76,5.29-10.37,2.68c-3.03-1.72-6.03-3.5-9.09-5.18
		C233.45,290.54,242.78,274.65,204.14,271.62z"/>
	<path class="st3" d="M128.38,157.79c11.37-19.14,21.46-38.24,30.37-57.94c1.02-2.25,2.26-3.94,4.86-2.67
		c2.61,1.28,5.58,2.42,4.56,6.54c-2.95,13.07-9.16,24.94-15.11,36.75C149.08,151.97,139.77,155.65,128.38,157.79z"/>
	<path class="st7" d="M369.96,284.99c-28.67-12.16-58.25-18.16-89.25-23.75c28.63-3.43,52.84,6.13,79.61,12.25
		C366.16,274.86,368.95,278.47,369.96,284.99z"/>
	<path class="st7" d="M281.65,299.2c-20.66-18.46-45.08-28.32-69.69-37.97c23.83-2.55,44.21,15.48,64.8,25.25
		C281.92,289.5,282.91,293.22,281.65,299.2z"/>
	<path class="st6" d="M255.15,76.63c1.88,6.28,1.32,10.58-2.59,14.79c-10.87,11.68-22.2,22.89-33.63,34.02
		c-3.96,3.85-9.17,4.16-13.88,6.08C223.12,114.86,240.84,97.99,255.15,76.63z"/>
	<path class="st5" d="M171.21,104.84c2.91,4.61,2.98,8.08,1.18,12.18c-4.67,7.69-12.01,33.17-21.12,32.98
		C159.59,135.54,166.99,121.3,171.21,104.84z"/>
	<path class="st8" d="M208.08,303.56c2.97,1.23,5.12,0.91,6.6,2.92C212.34,306.56,210.37,306.27,208.08,303.56z"/>
	<path class="st9" d="M152.21,269.01c-50.37-0.28-49.78-77.4,0.64-77.1C203.03,192.57,202.99,269.19,152.21,269.01z"/>
	<path class="st7" d="M152.38,265.92c-46.05-0.17-46.12-70.49,0.03-70.86C198.99,195.86,199.29,265.19,152.38,265.92z"/>
	<path class="st10" d="M169.21,230.28c0.28,22.08-33.35,22.28-33.37,0.26C135.86,208.75,168.88,208.55,169.21,230.28z"/>
	<path class="st5" d="M152.44,243.91c-17.81,0.31-17.33-27.44,0.33-26.98C169.77,217.7,170.55,243.8,152.44,243.91z"/>
</g>
<g>
</g>
<g>
</g>
<g>
</g>
<g>
</g>
<g>
</g>
<g>
</g>
<g>
</g>
<g>
</g>
<g>
</g>
<g>
</g>
<g>
</g>
<g>
</g>
<g>
</g>
<g>
</g>
<g>
</g>
</svg>
