<?xml version="1.0" encoding="utf-8"?>
<!-- Generator: Adobe Illustrator 25.3.0, SVG Export Plug-In . SVG Version: 6.00 Build 0)  -->
<svg version="1.1" id="Capa_1" xmlns="http://www.w3.org/2000/svg" xmlns:xlink="http://www.w3.org/1999/xlink" x="0px" y="0px"
	 viewBox="0 0 418 340" style="enable-background:new 0 0 418 340;" xml:space="preserve">
<style type="text/css">
	.st0{fill:#EDEDED;}
</style>
<path class="st0" d="M53,2.6c2.6,0,5.1,0,7.7,0c0.2,0.3,0.6,0.2,0.9,0.2c2.6,0.2,5.2,0.5,7.7,1.1c26.7,6.5,43.8,23.1,51.1,49.5
	c3.2,11.7,4,23.8,3.8,35.9c-0.2,12-1.8,23.7-4,35.4c-2.6,13.1-6,26-9.6,38.8c-0.1,0.4-0.4,0.9-0.2,1.4c2.8-0.8,5.5-1.6,8.1-2.6
	c4.2-1.6,7.3-4.4,9.3-8.4c1.2-2.3,2.5-4.5,3.7-6.7c7.5-13.8,15-27.7,21.8-41.9c1.2-2.6,2.3-5.2,3.7-7.6c2.2-3.8,5.8-4.7,9.6-2.6
	c0.8,0.5,1.6,1,2.3,1.7c4,3.5,6.4,8,7.4,13.1c0.7,3.4,0.6,6.7-1.1,9.8c-1.9,3.8-3.6,7.7-5,11.6c-0.5,1.3-1,2.6-1.2,4.2
	c0.4-0.3,0.6-0.5,0.8-0.7c11.3-10.1,22.4-20.4,33.3-30.9c9-8.7,17.8-17.4,26.5-26.5c2.8-3,5.6-6.1,8.6-8.8c4.3-4,9.7-4.1,14.3-0.5
	c3.3,2.6,5.4,6.1,6.5,10.1c1.5,5.5,1,10.6-2.9,15.1c-0.6,0.7-1.3,1.3-2,1.9c-8.2,9.1-16.9,17.7-25.6,26.3c-1.3,1.3-2.5,2.6-3.7,3.9
	c0.3,0.1,0.6-0.1,0.9-0.2c14.3-4.9,28.6-9.8,42.9-14.7c21-7.2,42-14.5,62.8-22c3.4-1.2,6.9-1.7,10.5-0.8c8.3,2.3,17,11.1,13.9,23.4
	c-1.9,7.3-6.2,12.5-13.7,14.6c-8.4,2.3-16.7,4.9-24.9,7.7c-10.5,3.6-20.9,7.6-31.5,11c-1.1,0.3-1.8,1-2.9,1.7
	c0.7-0.1,1.1-0.1,1.4-0.1c3.6-0.7,7.2-1.5,10.8-2.3c22.4-4.8,44.8-9.6,67.3-14.4c3.6-0.8,7.2-1.3,10.9-0.4c9.8,2.4,16.1,12,14.5,22
	c-1.3,8.4-7.2,14.8-15.1,16.4c-10.6,2.1-21.2,4.2-31.9,6.3c-13.6,2.7-27.2,5.6-40.5,9.4c-0.9,0.3-1.8,0.4-2.7,0.9
	c0.6,0.3,1.1,0.1,1.7,0.1c30.7,0,61.4,0,92.2,0c1.8,0,3.5,0.1,5.3,0.4c5.8,1,10.7,3.6,13.9,8.7c4.8,7.7,3.4,18.2-3.2,25
	c-1.8,1.8-3.8,3.4-6,4.7c1.4,0.9,2.6,1.6,3.8,2.4c10.8,7.3,11.3,24.6,0,32.2c-4.1,2.8-8.6,3.9-13.6,3.9c-9.7-0.1-19.4,0-29,0
	c-9.1,0-18.2,0.1-27.2,0.3c-2.7,0-5.4,0-8.1,0c0,0.1,0,0.3,0,0.4c0.3,0.1,0.7,0.2,1,0.3c11.6,3,23.2,5.8,34.7,8.9
	c2.6,0.7,4.8,1.9,6.6,3.9c3.4,4,4.3,8.7,3.4,13.7c-1,5.7-3.8,10.1-9.4,12.2c-0.8,0.3-1.6,0.6-2.4,0.5c-1.7-0.2-3.5-0.4-5.2-0.7
	c-9.8-1.5-19.4-3.8-29-6.3c-13.2-3.4-26.4-7-39.9-9.1c-2.2-0.3-4.4-0.7-6.6-0.9c0,0.2,0,0.2,0,0.2c0.2,0.1,0.4,0.3,0.6,0.4
	c3.2,2.3,4.8,5.5,4.9,9.3c0.2,7.7-3,13.8-8.7,18.8c-1.9,1.6-4,1.9-6.3,1.4c-3.8-0.8-6.9-2.8-10.1-4.8c-3.5-2.2-6.8-4.6-10.5-6.5
	c-2.1-1.1-2-1.1-2,1.2c0.1,6.3-0.8,12.4-4,18c-4.3,7.5-10.9,11.7-19.1,13.8c-2.1,0.5-4.3,0.8-6.4,1.2c-2.6,0-5.3,0-7.9,0
	c-1.5-0.2-3-0.5-4.5-0.7c-5.8-1.1-11.3-3-15.9-6.7c-4.5-3.6-7.2-8.1-6.5-14.1c0.5-3.8,2.4-7,4.8-9.9c0.9-1.1,1.9-2.1,3-3.4
	c-0.7,0.2-1.1,0.3-1.5,0.4c-8,2.6-16,5.1-24.2,7c-13.1,3.1-26.4,5.2-39.9,3.7c-8.4-0.9-16.3-3.2-23.7-7.3
	c-7.7-4.3-14.1-10.2-19.4-17.2c-2.2-2.9-2.9-3.1-6.1-1.6c-5.2,2.4-10.6,4-16.2,5c-5.8,1.1-11.6,1.4-17.4,1.5
	c-3.8,0.1-7.6,0-11.4-0.3c-1.9-0.2-2.6-1-2.8-2.9c-0.1-0.5-0.1-1-0.1-1.6c0-2.2,0.1-4.5,0.1-6.7c0-12.8-0.1-25.7-0.1-38.5
	c0-3.3,0.8-4.3,4-5.1c11.4-2.7,21.4-8,29.9-16.2c1.5-1.4,2.3-3,2.5-5.1c0.3-4.5,1-8.9,1.7-13.3c2.2-12.9,5.7-25.5,9.4-38
	c3.9-13,8-26,11.3-39.3c3.7-15.3,6.2-30.7,5.6-46.5c-0.3-7.2-0.9-14.4-3.2-21.4c-2.1-6.4-5.1-12.2-10.1-16.9
	c-6.2-5.9-13.7-9.2-22.3-9.6c-6.1-0.3-11.6,1.3-16.3,5.3c-0.3,0.2-0.5,0.5-0.8,0.7c-0.2,0.3-0.6,0.5-0.7,0.9
	c5.2-1,10.2-1.4,15.4-0.5c11.6,2,18.2,11.4,15.9,22.9c-1.8,8.9-7.3,15-15.6,18.6c-6.9,2.9-14,3-21.2,1.5c-25-5-37.4-31.6-24.4-54.2
	C18.4,14.2,31.5,6,48,3.3C49.7,3,51.4,3,53,2.6z M63.3,270.5c-0.4,0.5-1,0.7-1.6,1c-5.7,3.1-11.8,4.9-18.1,6.4
	c-2.7,0.6-5.5,0.9-8.2,1.9c-2.6,1-3.7,2.5-3.6,5.3c0,0.8,0.2,1.5,0.2,2.3c0.1,1.5,0.8,2.4,2.2,2.9c1.8,0.7,3.7,0.9,5.6,0.9
	c5.2,0.2,10.3-0.3,15.4-1.2c7.9-1.4,15.9-2.6,23.1-6.7c2.2-1.2,3.5-0.8,5.2,1.1c0.3,0.3,0.5,0.6,0.7,1c6.7,9.2,15.1,16.3,25.7,20.8
	c8.9,3.8,18.2,5,27.7,5.3c6.3,0.2,12.5-0.7,18.6-2.3c7.7-1.9,15.3-4.6,23-6.8c8.4-2.3,17-3.9,25.8-2.5c4.5,0.7,8.8,2,12.8,4.1
	c1.3,0.7,2.6,1.6,2.3,3.3c-0.3,1.7-1.9,2.2-3.3,2.5c-3.6,0.8-6.9-0.2-9.8-2.4c-5.3-4-11.3-3.8-16,0.9c-3.1,3-4.7,6.7-3.9,11
	c0.6,3.3,2.6,5.6,5.1,7.5c12,8.9,24.9,10.2,38.4,3.8c11.2-5.3,16.9-18.6,13.5-30.3c-1.9-6.5-6-11.5-11.4-15.5
	c-7.6-5.7-16.2-8.6-25.6-9.7c-4.3-0.5-7.7,0.8-10.6,4c-1.4,1.6-3.1,3-4.8,4.3c-13.4,10.4-28.6,14-45.3,12.1
	c-9.9-1.2-19.2-4.4-27.7-9.6c-14.9-9.1-25.2-21.6-29.5-38.7c-1.4-5.5-2.1-11.2-1.5-16.9c1-8.9,3.1-17.5,5.6-26.1
	c3.6-12.4,8.2-24.4,12.4-36.6c3.4-9.8,6.5-19.7,8.7-29.8c0.8-3.7,1.2-7.6,2.2-11.3c2.4-9.4,3.9-18.8,4.4-28.5c0.6-12,0-24-2.6-35.9
	c-2.3-10.8-6-21-12-30.4C98.7,20.1,88.4,11.8,74.7,8C64.4,5.1,53.8,5.2,43.4,7.3C23,11.2,9.5,28.5,8.4,45.3C8,51.3,8.8,57,11.7,62.1
	c6.6,11.8,17.5,16.9,30.3,18c9.1,0.8,16.5-3.4,22.3-10.4c3.3-4,5-8.6,4.2-13.8c-1.7-10.2-12.8-15.6-21-13.6
	c-4.8,1.2-8.3,4.1-11.1,8.1c-0.4,0.6-0.9,1.3-1.8,1.2c-0.9-0.1-1.3-0.9-1.6-1.6c-0.8-1.8-0.5-3.5,0.1-5.3c1.7-5.2,4.8-9.2,9.6-11.5
	c7.2-3.5,14.8-4.7,22.7-2.9c8.2,1.9,14.6,6.7,19.6,13.4C93.1,54.3,96.5,66.4,97,79.6c0.1,3.4-0.3,6.7-0.4,10.1
	c-0.2,8.1-1.1,16.1-2.5,24c-2.1,11.5-5.1,22.8-8.5,34c-4.2,14.1-8.8,28.1-12.2,42.4c-2.2,9.1-3.9,18.3-4.7,27.7
	c-0.2,2.1-0.3,4.2-2,6c-3.4,3.4-6.9,6.5-10.9,9.1c-6.7,4.3-13.8,7.4-21.5,9.4c-1.5,0.4-1.9,0.9-1.9,2.5c0,1.7,0,3.4,0,5
	c0,1.9-0.1,3.8,0.4,5.6c0.2,0.7,0.5,1,1.2,1c2.2,0.1,4.4-0.1,6.6-0.3c4.4-0.5,8.8-1.6,13.1-2.6c2.8-0.6,5.7-0.8,8.2-2.4
	c0.1-0.1,0.4-0.2,0.5,0.1c-0.3,0.2-0.6,0.4-0.9,0.5c-5.6,2.8-11.4,4.9-17.5,6.3c-2.6,0.6-5.3,1.1-7.8,2.1c-1.8,0.7-3,1.8-3.4,3.7
	c-0.2,0.8-0.3,1.7-0.3,2.5c-0.1,2.1,0,4.2-0.1,6.2c-0.1,2,0.3,2.9,2.4,3.3c2.1,0.5,4.3,0.4,6.4,0.1c7.3-0.9,14.4-2.9,21.3-5.4
	C62.5,270.5,62.9,270.2,63.3,270.5z M152.3,266c2.6,0.1,5.2-0.2,7.7-0.7c9.7-1.9,17.4-6.9,22.4-15.5c5.8-9.9,6.7-20.5,3.1-31.3
	c-3-9.2-9-16-17.9-19.9c-7-3.1-14.3-3.9-21.8-2.5c-10.2,1.8-18,7.2-23,16.3c-4.1,7.4-5.4,15.5-4.2,23.9c1.1,7.7,4,14.5,9.5,20
	C134.7,263.1,143,265.8,152.3,266z M162.9,146.4c3.1-1.1,6-2.1,8.9-3.1c6.7-2.2,13.5-4.2,20-7c2.3-1,4.6-1.9,6.5-3.7
	c9.4-8.5,18.9-16.9,28-25.8c7.1-7,14-14,19.9-22.1c2.4-3.3,4.6-6.6,5.3-10.7c0.3-1.8-0.4-3.6-2.1-4.5c-3.6-2-6.3-1.7-9.3,1.1
	c-0.4,0.4-0.8,0.8-1.2,1.3c-4.5,5-9.1,10-13.9,14.8c-15.2,15.3-31.4,29.6-46.9,44.4C173,136.2,168,141.2,162.9,146.4z M369.9,284.9
	c-0.4-5.6-3.7-9.7-9-10.9c-10.5-2.4-20.9-5.4-31.3-8c-13-3.2-26.2-5.5-39.6-5.1c-2.4,0.1-4.8,0.3-7.2,0.5
	C312.3,267,341.8,273.1,369.9,284.9z M281.7,298.9c1.5-6.1-0.3-9.7-5-12.1c-6.7-3.4-13.1-7.2-19.6-10.9c-7.8-4.5-15.7-8.9-24.3-11.8
	c-6-2-12.1-3-18.4-2.7c-0.4,0-0.8,0-1.1,0.3c0.2,0.1,0.3,0.1,0.5,0.2c9.7,3.8,19.4,7.7,28.9,12.2c13.8,6.5,26.8,14.3,38.3,24.3
	C281.2,298.6,281.4,298.9,281.7,298.9z M214.9,306.7c-1.8-2-4.2-1.9-6.3-2.6C210.2,306,212.2,306.9,214.9,306.7z"/>
<path class="st0" d="M135.9,230.7c-0.3-10.2,7.9-17.2,17.9-16.6c9.2,0.6,15.9,6.9,15.8,16.7c-0.1,11.1-8.1,16.7-17.3,16.5
	C142.3,247.3,135.6,240.1,135.9,230.7z"/>
</svg>
